<svg viewBox="0 0 1180 720" xmlns="http://www.w3.org/2000/svg">

<style>
@import url('https://fonts.googleapis.com/css2?family=JetBrains+Mono:wght@400;500;600;700&amp;display=swap');
text { font-family: 'JetBrains Mono', 'Noto Sans SC', 'PingFang SC', sans-serif; }
.title { fill:#f8fafc; font-size:18px; font-weight:700; }
.sub { fill:#94a3b8; font-size:9px; }
.label { fill:#f8fafc; font-size:12px; font-weight:600; }
.small { fill:#cbd5e1; font-size:9px; }
.tiny { fill:#94a3b8; font-size:8px; }
.region { fill:none; stroke:#fbbf24; stroke-width:1; stroke-dasharray:8 4; }
.line { fill:none; stroke:#64748b; stroke-width:1.4; marker-end:url(#arrow); }
.lineCyan { fill:none; stroke:#22d3ee; stroke-width:1.6; marker-end:url(#arrow-cyan); }
.lineGreen { fill:none; stroke:#34d399; stroke-width:1.6; marker-end:url(#arrow-green); }
.lineRose { fill:none; stroke:#fb7185; stroke-width:1.4; stroke-dasharray:6 4; marker-end:url(#arrow-rose); }
</style>

<defs>
  <pattern id="grid" width="40" height="40" patternUnits="userSpaceOnUse">
    <path d="M 40 0 L 0 0 0 40" fill="none" stroke="#1e293b" stroke-width="0.5"/>
  </pattern>
  <marker id="arrow" markerWidth="10" markerHeight="7" refX="9" refY="3.5" orient="auto">
    <polygon points="0 0, 10 3.5, 0 7" fill="#64748b"/>
  </marker>
  <marker id="arrow-cyan" markerWidth="10" markerHeight="7" refX="9" refY="3.5" orient="auto">
    <polygon points="0 0, 10 3.5, 0 7" fill="#22d3ee"/>
  </marker>
  <marker id="arrow-green" markerWidth="10" markerHeight="7" refX="9" refY="3.5" orient="auto">
    <polygon points="0 0, 10 3.5, 0 7" fill="#34d399"/>
  </marker>
  <marker id="arrow-rose" markerWidth="10" markerHeight="7" refX="9" refY="3.5" orient="auto">
    <polygon points="0 0, 10 3.5, 0 7" fill="#fb7185"/>
  </marker>
</defs>

<rect width="1180" height="720" fill="#0f172a"/>
<rect width="1180" height="720" fill="url(#grid)"/>
<text x="32" y="38" class="title">系统架构图 - 思政理论学习考核评价系统</text>
<text x="32" y="56" class="sub">Vue 3 + NestJS + PostgreSQL + Redis + MinIO + Docker + Nginx</text>
<rect x="28" y="78" width="1124" height="574" rx="12" class="region"/>
<text x="42" y="97" fill="#fbbf24" font-size="10" font-weight="600">Docker / Nginx / Private Network</text>


<rect x="60" y="135" width="160" height="64" rx="6" fill="#0f172a"/>
<rect x="60" y="135" width="160" height="64" rx="6" fill="rgba(8,51,68,0.4)" stroke="#22d3ee" stroke-width="1.5"/>
<text x="140.0" y="160" class="label" text-anchor="middle">学习端</text>
<text x="140.0" y="178" class="small" text-anchor="middle">Web/H5/移动适配</text>


<rect x="60" y="245" width="160" height="64" rx="6" fill="#0f172a"/>
<rect x="60" y="245" width="160" height="64" rx="6" fill="rgba(8,51,68,0.4)" stroke="#22d3ee" stroke-width="1.5"/>
<text x="140.0" y="270" class="label" text-anchor="middle">管理后台</text>
<text x="140.0" y="288" class="small" text-anchor="middle">组织/课程/考试/报表</text>


<rect x="60" y="355" width="160" height="64" rx="6" fill="#0f172a"/>
<rect x="60" y="355" width="160" height="64" rx="6" fill="rgba(30,41,59,0.5)" stroke="#94a3b8" stroke-width="1.5"/>
<text x="140.0" y="380" class="label" text-anchor="middle">外部身份</text>
<text x="140.0" y="398" class="small" text-anchor="middle">SSO/LDAP 可扩展</text>



<rect x="305" y="190" width="170" height="70" rx="6" fill="#0f172a"/>
<rect x="305" y="190" width="170" height="70" rx="6" fill="rgba(120,53,15,0.3)" stroke="#fbbf24" stroke-width="1.5"/>
<text x="390.0" y="215" class="label" text-anchor="middle">Nginx 网关</text>
<text x="390.0" y="233" class="small" text-anchor="middle">HTTPS / 静态资源 / 反代</text>


<rect x="305" y="310" width="170" height="70" rx="6" fill="#0f172a"/>
<rect x="305" y="310" width="170" height="70" rx="6" fill="rgba(120,53,15,0.3)" stroke="#fbbf24" stroke-width="1.5"/>
<text x="390.0" y="335" class="label" text-anchor="middle">API Gateway</text>
<text x="390.0" y="353" class="small" text-anchor="middle">鉴权 / 限流 / 路由</text>



<rect x="560" y="105" width="155" height="60" rx="6" fill="#0f172a"/>
<rect x="560" y="105" width="155" height="60" rx="6" fill="rgba(6,78,59,0.4)" stroke="#34d399" stroke-width="1.5"/>
<text x="637.5" y="130" class="label" text-anchor="middle">Auth 模块</text>
<text x="637.5" y="148" class="small" text-anchor="middle">登录 / RBAC / 菜单</text>


<rect x="760" y="105" width="155" height="60" rx="6" fill="#0f172a"/>
<rect x="760" y="105" width="155" height="60" rx="6" fill="rgba(6,78,59,0.4)" stroke="#34d399" stroke-width="1.5"/>
<text x="837.5" y="130" class="label" text-anchor="middle">UserOrg 模块</text>
<text x="837.5" y="148" class="small" text-anchor="middle">组织 / 人员 / 数据范围</text>


<rect x="560" y="205" width="155" height="60" rx="6" fill="#0f172a"/>
<rect x="560" y="205" width="155" height="60" rx="6" fill="rgba(6,78,59,0.4)" stroke="#34d399" stroke-width="1.5"/>
<text x="637.5" y="230" class="label" text-anchor="middle">Course 模块</text>
<text x="637.5" y="248" class="small" text-anchor="middle">课程 / 章节 / 进度</text>


<rect x="760" y="205" width="155" height="60" rx="6" fill="#0f172a"/>
<rect x="760" y="205" width="155" height="60" rx="6" fill="rgba(6,78,59,0.4)" stroke="#34d399" stroke-width="1.5"/>
<text x="837.5" y="230" class="label" text-anchor="middle">Question 模块</text>
<text x="837.5" y="248" class="small" text-anchor="middle">题库 / 试卷 / 组卷</text>


<rect x="560" y="305" width="155" height="60" rx="6" fill="#0f172a"/>
<rect x="560" y="305" width="155" height="60" rx="6" fill="rgba(6,78,59,0.4)" stroke="#34d399" stroke-width="1.5"/>
<text x="637.5" y="330" class="label" text-anchor="middle">Exam 模块</text>
<text x="637.5" y="348" class="small" text-anchor="middle">答题 / 评分 / 成绩</text>


<rect x="760" y="305" width="155" height="60" rx="6" fill="#0f172a"/>
<rect x="760" y="305" width="155" height="60" rx="6" fill="rgba(6,78,59,0.4)" stroke="#34d399" stroke-width="1.5"/>
<text x="837.5" y="330" class="label" text-anchor="middle">Report 模块</text>
<text x="837.5" y="348" class="small" text-anchor="middle">看板 / 报表 / 导出</text>


<rect x="560" y="405" width="155" height="60" rx="6" fill="#0f172a"/>
<rect x="560" y="405" width="155" height="60" rx="6" fill="rgba(6,78,59,0.4)" stroke="#34d399" stroke-width="1.5"/>
<text x="637.5" y="430" class="label" text-anchor="middle">File 模块</text>
<text x="637.5" y="448" class="small" text-anchor="middle">上传 / 预览 / 授权</text>


<rect x="760" y="405" width="155" height="60" rx="6" fill="#0f172a"/>
<rect x="760" y="405" width="155" height="60" rx="6" fill="rgba(136,19,55,0.4)" stroke="#fb7185" stroke-width="1.5"/>
<text x="837.5" y="430" class="label" text-anchor="middle">Audit 模块</text>
<text x="837.5" y="448" class="small" text-anchor="middle">日志 / 留痕 / 追溯</text>


<rect x="532" y="505" width="440" height="34" rx="8" fill="rgba(251,146,60,0.3)" stroke="#fb923c"/>
<text x="752" y="527" class="label" text-anchor="middle">Redis 缓存与队列：验证码 / 考试临时答案 / 报表缓存 / 定时任务</text>


<g transform="translate(1010,140)">
  <rect x="0" y="12" width="150" height="58" rx="2" fill="#0f172a"/>
  <ellipse cx="75" cy="12" rx="75" ry="13" fill="#0f172a"/>
  <ellipse cx="75" cy="70" rx="75" ry="13" fill="#0f172a"/>
  <rect x="0" y="12" width="150" height="58" fill="rgba(76,29,149,0.4)"/>
  <ellipse cx="75" cy="12" rx="75" ry="13" fill="rgba(76,29,149,0.4)" stroke="#a78bfa" stroke-width="1.5"/>
  <ellipse cx="75" cy="70" rx="75" ry="13" fill="rgba(76,29,149,0.4)" stroke="#a78bfa" stroke-width="1.5"/>
  <line x1="0" y1="12" x2="0" y2="70" stroke="#a78bfa" stroke-width="1.5"/>
  <line x1="150" y1="12" x2="150" y2="70" stroke="#a78bfa" stroke-width="1.5"/>
  <text x="75" y="42" class="label" text-anchor="middle">PostgreSQL</text>
  <text x="75" y="57" class="small" text-anchor="middle">业务数据 / 历史快照</text>
</g>


<g transform="translate(1010,300)">
  <rect x="0" y="12" width="150" height="58" rx="2" fill="#0f172a"/>
  <ellipse cx="75" cy="12" rx="75" ry="13" fill="#0f172a"/>
  <ellipse cx="75" cy="70" rx="75" ry="13" fill="#0f172a"/>
  <rect x="0" y="12" width="150" height="58" fill="rgba(76,29,149,0.4)"/>
  <ellipse cx="75" cy="12" rx="75" ry="13" fill="rgba(76,29,149,0.4)" stroke="#a78bfa" stroke-width="1.5"/>
  <ellipse cx="75" cy="70" rx="75" ry="13" fill="rgba(76,29,149,0.4)" stroke="#a78bfa" stroke-width="1.5"/>
  <line x1="0" y1="12" x2="0" y2="70" stroke="#a78bfa" stroke-width="1.5"/>
  <line x1="150" y1="12" x2="150" y2="70" stroke="#a78bfa" stroke-width="1.5"/>
  <text x="75" y="42" class="label" text-anchor="middle">MinIO</text>
  <text x="75" y="57" class="small" text-anchor="middle">课件 / 视频 / 证书</text>
</g>


<g transform="translate(1010,460)">
  <rect x="0" y="12" width="150" height="58" rx="2" fill="#0f172a"/>
  <ellipse cx="75" cy="12" rx="75" ry="13" fill="#0f172a"/>
  <ellipse cx="75" cy="70" rx="75" ry="13" fill="#0f172a"/>
  <rect x="0" y="12" width="150" height="58" fill="rgba(76,29,149,0.4)"/>
  <ellipse cx="75" cy="12" rx="75" ry="13" fill="rgba(76,29,149,0.4)" stroke="#a78bfa" stroke-width="1.5"/>
  <ellipse cx="75" cy="70" rx="75" ry="13" fill="rgba(76,29,149,0.4)" stroke="#a78bfa" stroke-width="1.5"/>
  <line x1="0" y1="12" x2="0" y2="70" stroke="#a78bfa" stroke-width="1.5"/>
  <line x1="150" y1="12" x2="150" y2="70" stroke="#a78bfa" stroke-width="1.5"/>
  <text x="75" y="42" class="label" text-anchor="middle">Redis</text>
  <text x="75" y="57" class="small" text-anchor="middle">缓存 / 会话 / 队列</text>
</g>


<path d="M220 167 L305 225" class="lineCyan"/>
<path d="M220 277 L305 225" class="lineCyan"/>
<path d="M220 387 L305 345" class="line"/>
<path d="M475 225 L560 135" class="line"/>
<path d="M475 345 L560 235" class="lineGreen"/>
<path d="M475 345 L560 335" class="lineGreen"/>
<path d="M915 135 L1010 180" class="line"/>
<path d="M915 235 L1010 180" class="line"/>
<path d="M915 335 L1010 180" class="line"/>
<path d="M915 435 L1010 345" class="line"/>
<path d="M752 505 L1085 530" class="line"/>

<rect x="835" y="600" width="300" height="32" rx="6" fill="rgba(30,41,59,0.7)" stroke="#94a3b8"/>
<text x="985" y="621" class="tiny" text-anchor="middle">安全边界：JWT + RBAC + 数据范围 + 审计日志 + 私有文件桶</text>
</svg>